<?xml version="1.0" encoding="UTF-8" standalone="no"?>
<!-- Generator: Adobe Illustrator 26.3.1, SVG Export Plug-In . SVG Version: 6.00 Build 0)  -->

<svg
   version="1.1"
   x="0px"
   y="0px"
   viewBox="0 0 28.35 45.35"
   style="enable-background:new 0 0 28.35 45.35;"
   xml:space="preserve"
   id="svg102"
   sodipodi:docname="arctos flag (Copy).svg"
   inkscape:version="1.4 (e7c3feb, 2024-10-09)"
   xmlns:inkscape="http://www.inkscape.org/namespaces/inkscape"
   xmlns:sodipodi="http://sodipodi.sourceforge.net/DTD/sodipodi-0.dtd"
   xmlns:xlink="http://www.w3.org/1999/xlink"
   xmlns="http://www.w3.org/2000/svg"
   xmlns:svg="http://www.w3.org/2000/svg"><defs
   id="defs102" /><sodipodi:namedview
   id="namedview102"
   pagecolor="#ffffff"
   bordercolor="#000000"
   borderopacity="0.25"
   inkscape:showpageshadow="2"
   inkscape:pageopacity="0.0"
   inkscape:pagecheckerboard="0"
   inkscape:deskcolor="#d1d1d1"
   inkscape:zoom="12.520546"
   inkscape:cx="-3.5541581"
   inkscape:cy="20.007115"
   inkscape:window-width="1920"
   inkscape:window-height="1011"
   inkscape:window-x="0"
   inkscape:window-y="32"
   inkscape:window-maximized="1"
   inkscape:current-layer="svg102" />
<style
   type="text/css"
   id="style1">
	.st0{display:none;}
	.st1{display:inline;fill:#FFFFFF;}
	.st2{display:inline;}
	.st3{fill:#F26963;stroke:#F26963;stroke-width:0.1;stroke-miterlimit:10;}
	.st4{fill:#FFFFFF;}
	.st5{fill:#F26963;}
	.st6{display:inline;fill:#F26963;stroke:#F26963;stroke-width:0.1;stroke-miterlimit:10;}
	.st7{fill:#83C674;}
	.st8{display:inline;fill:#83C674;}
	.st9{display:inline;fill:#83C674;stroke:#FFFFFF;stroke-width:0.5;stroke-miterlimit:10;}
	.st10{fill:#509DB2;}
	.st11{opacity:0.4;}
	.st12{fill:#010101;}
	.st13{fill:#61605E;}
	.st14{fill:#397F8E;}
	.st15{display:inline;fill:#509DB2;}
	.st16{display:inline;fill:none;}
	.st17{fill:#509DB2;stroke:#FFFFFF;stroke-miterlimit:10;}
	.st18{display:inline;fill:#F26963;}
	.st19{display:inline;fill:#F26963;stroke:#FFFFFF;stroke-miterlimit:10;}
	.st20{display:inline;fill:none;stroke:#FFFFFF;stroke-miterlimit:10;}
	.st21{display:inline;fill:#84C775;}
	.st22{display:inline;fill:#84C775;stroke:#FFFFFF;stroke-miterlimit:10;}
	.st23{display:inline;fill:#FFFFFF;stroke:#FFFFFF;stroke-width:0.5;stroke-miterlimit:10;}
	.st24{display:inline;fill:none;stroke:#FFFFFF;stroke-width:0.5;stroke-miterlimit:10;}
</style>



<path
   id="polygon92"
   style="fill:none;stroke:#ff0000;stroke-opacity:1;stroke-width:0.03779528;stroke-dasharray:none"
   class="st10"
   d="M 28.36,28.3 14.17,45.35 -0.01,28.3 C -0.00867967,18.866667 0,9.4333335 0,0 h 28.35 c 0.0026,9.4333334 0.0065,18.866667 0.01,28.3 z"
   sodipodi:nodetypes="cccccc" /><polygon
   class="st17"
   points="3.01,25.69 25.34,25.69 14.17,7.98 "
   id="polygon93"
   style="display:inline;stroke:#000000;stroke-opacity:1;fill:none" /><path
   class="st4"
   d="M 7.08,25.69 C 6.46,25.08 6.43,24.08 6.43,24.08 l 0.08,-0.69 c 0.39,-1.99 2.52,-1.99 4.88,-2.72 2.36,-0.72 1.62,-1.25 1.71,-2.93 0.12,-2.18 6.01,-1.81 6.01,-1.81 -6.25,0.82 -4.28,2.33 -3.66,3.75 0.56,1.27 -1.2,1.83 -3.16,2.43 -1.96,0.6 -1.79,1.32 -1.79,1.32 0,0 -0.15,0.83 0.71,2.26 H 7.08 Z"
   id="path93"
   style="display:inline;stroke:none;fill:#000000;fill-opacity:1;stroke-opacity:1;stroke-width:0;stroke-dasharray:none" />


<path
   style="fill:none;stroke:#000000;stroke-width:1.00157;stroke-dasharray:none;stroke-opacity:1"
   sodipodi:type="inkscape:offset"
   inkscape:radius="-0.52240038"
   inkscape:original="M 0 0 C -5.7824116e-19 9.4333335 -0.008445295 18.867448 -0.009765625 28.300781 L 14.169922 45.349609 L 28.359375 28.300781 C 28.355875 18.867448 28.352209 9.4333334 28.349609 0 L 0 0 z "
   xlink:href="#path102"
   id="path103"
   inkscape:href="#path102"
   d="M 0.52148437,0.52148437 C 0.52118613,9.7175154 0.51309904,18.913908 0.51171875,28.109375 L 14.169922,44.53125 27.837891,28.109375 c -0.0034,-9.195714 -0.0072,-18.3921158 -0.0098,-27.58789063 z" /><path
   id="path102"
   style="fill:none;stroke:#ff0000;stroke-width:0.0377953;stroke-dasharray:none;stroke-opacity:1"
   class="st10"
   d="M 28.36,28.3 14.17,45.35 -0.01,28.3 C -0.00867967,18.866667 0,9.4333335 0,0 h 28.35 c 0.0026,9.4333334 0.0065,18.866667 0.01,28.3 z"
   sodipodi:nodetypes="cccccc" /></svg>
